<svg version="1.1" id="Layer_1" xmlns="http://www.w3.org/2000/svg" xmlns:xlink="http://www.w3.org/1999/xlink" x="0px" y="0px"
	 width="100%" viewBox="0 0 1024 1024" enable-background="new 0 0 1024 1024" xml:space="preserve">
<path fill="#000000" opacity="1.000000" stroke="none" 
	d="
M709.000000,1025.000000 
	C472.666656,1025.000000 236.833328,1025.000000 1.000000,1025.000000 
	C1.000000,683.666687 1.000000,342.333344 1.000000,1.000000 
	C342.333344,1.000000 683.666687,1.000000 1025.000000,1.000000 
	C1025.000000,342.333344 1025.000000,683.666687 1025.000000,1025.000000 
	C919.833313,1025.000000 814.666687,1025.000000 709.000000,1025.000000 
M732.061707,826.478394 
	C732.473389,823.766296 732.692749,821.007874 733.332458,818.350647 
	C735.307739,810.145630 733.046326,807.531555 724.059326,808.315369 
	C725.089172,808.798401 725.841858,809.151367 727.651123,809.999939 
	C724.902283,809.999939 723.309143,809.999878 721.716003,809.999878 
	C674.246460,810.000000 626.776855,810.000305 579.307312,810.000366 
	C492.148987,810.000427 404.990692,809.994751 317.832367,810.012085 
	C311.566223,810.013306 306.279114,808.339905 303.212250,802.306946 
	C304.742035,799.753174 305.974884,797.047058 307.777740,794.797791 
	C315.424500,785.257446 323.248016,775.858948 330.992767,766.397034 
	C341.329132,753.768921 351.574677,741.064636 362.084595,728.582825 
	C363.325073,727.109619 365.984070,726.106323 367.987061,726.103699 
	C466.273315,725.976196 564.559875,726.079285 662.846069,725.929077 
	C706.263123,725.862793 749.681763,725.483521 793.095093,724.901611 
	C811.473999,724.655273 829.270874,720.425232 846.409424,714.016846 
	C856.071472,710.404053 865.177917,705.327515 874.626038,701.115112 
	C892.729309,693.044006 907.819824,680.659363 922.011292,667.267029 
	C933.447205,656.474976 943.762207,644.486389 951.651428,630.750854 
	C957.222229,621.051758 962.970886,611.324280 967.195251,601.017334 
	C971.839233,589.686462 975.478882,577.833374 978.338684,565.915649 
	C980.786011,555.716858 982.413757,545.137573 982.789917,534.668579 
	C983.361023,518.773987 984.274841,502.707336 979.976257,487.057190 
	C977.575867,478.317841 975.202209,469.555817 972.331177,460.966248 
	C970.311523,454.923645 967.703979,449.044281 964.946655,443.289551 
	C961.080139,435.219879 957.447632,426.930054 952.574158,419.480774 
	C947.551819,411.803894 941.579163,404.627533 935.268616,397.943726 
	C926.454285,388.607941 917.092163,379.768738 907.664612,371.040955 
	C902.730103,366.472717 897.278931,362.426178 891.828308,358.464264 
	C887.911194,355.617065 883.675842,353.182037 879.456726,350.784241 
	C876.174316,348.918732 872.699951,347.390564 869.307739,345.718781 
	C862.727600,342.475922 856.322021,338.786591 849.516663,336.117371 
	C841.917175,333.136627 834.000061,330.922058 826.135376,328.673950 
	C818.802795,326.577942 811.406616,324.640503 803.943787,323.088348 
	C799.490906,322.162262 794.861023,322.048523 790.301514,321.684021 
	C783.650635,321.152344 776.997925,320.556274 770.333984,320.300415 
	C764.262756,320.067291 758.175476,320.251038 753.036865,320.251038 
	C748.961304,313.040771 744.858398,306.095245 741.055054,298.989380 
	C732.660156,283.305420 722.223022,268.996399 710.236084,256.014526 
	C699.826355,244.740784 688.939026,233.618393 676.839783,224.271057 
	C663.083313,213.643463 648.238342,204.154572 632.948181,195.864578 
	C619.746277,188.706757 605.533020,183.097748 591.258789,178.323334 
	C577.044495,173.569016 562.311218,170.133362 547.588928,167.210342 
	C537.379089,165.183243 526.819092,164.433075 516.385803,164.127686 
	C498.881073,163.615326 481.443237,164.783737 464.320007,168.970139 
	C458.251221,170.453888 452.011200,171.303146 446.024994,173.045502 
	C433.129761,176.798767 420.191132,180.508850 407.573822,185.075302 
	C398.655273,188.303085 390.221039,192.877808 381.598267,196.910385 
	C377.264801,198.936996 372.716339,200.677582 368.760986,203.296448 
	C363.404785,206.842804 358.405884,210.966171 353.466156,215.096100 
	C344.111389,222.917328 334.518799,230.515579 325.751343,238.960541 
	C317.092987,247.300415 308.692505,256.077942 301.356354,265.573212 
	C293.898346,275.226196 287.424255,285.730713 281.363373,296.344330 
	C276.012238,305.715118 271.869598,315.772400 267.090179,325.475739 
	C265.888123,327.916138 264.290833,330.161804 263.188965,331.979370 
	C263.188965,333.236603 263.457336,334.420532 263.138153,335.416138 
	C262.219177,338.282440 260.879791,341.019073 260.035431,343.903229 
	C257.808960,351.508331 255.821915,359.183899 253.550812,366.774963 
	C253.275955,367.693726 251.932785,368.735504 250.932846,368.926971 
	C239.544479,371.107513 227.766983,370.666901 216.624191,374.841217 
	C210.825180,377.013672 204.303909,377.192474 198.376526,379.102448 
	C188.225967,382.373138 178.350052,386.487000 168.241974,389.900879 
	C152.571823,395.193359 138.176086,402.773132 125.183945,412.995178 
	C117.471260,419.063446 109.622955,424.985352 102.235565,431.431366 
	C97.758400,435.337921 94.317207,440.415619 89.933746,444.448914 
	C79.767921,453.802612 71.432312,464.623871 64.381119,476.359436 
	C58.563095,486.042664 53.550152,496.217285 48.374359,506.273956 
	C46.853512,509.228943 45.822956,512.473145 44.863735,515.673584 
	C41.833565,525.783630 38.841206,535.907593 36.034584,546.081360 
	C34.071499,553.197449 35.826530,561.164978 31.135357,567.709534 
	C30.849274,568.108704 31.396822,569.155884 31.640501,569.873047 
	C32.058746,571.103943 32.959305,572.325439 32.921150,573.527588 
	C32.812012,576.966309 31.977760,580.401917 32.060669,583.823425 
	C32.434296,599.242371 31.618923,614.760742 35.026569,629.970581 
	C37.446228,640.770630 39.748802,651.620422 42.789398,662.251953 
	C46.522606,675.305115 52.083401,687.657715 59.041485,699.357422 
	C63.774704,707.316162 67.762032,715.813965 73.256584,723.197388 
	C78.671791,730.474182 85.322350,736.901733 91.873428,743.244873 
	C99.548141,750.675842 107.349396,758.061707 115.744026,764.639832 
	C124.324661,771.363831 133.318192,777.748718 142.807098,783.078247 
	C154.735550,789.778076 167.159271,795.504211 180.430252,799.554016 
	C186.010071,801.256653 187.965057,799.350342 189.965363,795.772705 
	C199.410248,778.880066 208.616989,761.854309 218.064545,744.963135 
	C219.593231,742.230042 218.871490,740.454468 216.569809,739.287537 
	C213.302261,737.630981 209.845596,736.329102 206.417053,735.012878 
	C201.073990,732.961792 195.591812,731.247498 190.336426,728.998352 
	C176.390625,723.030090 163.839722,714.688599 152.217468,705.071716 
	C145.776337,699.741882 139.850006,693.710571 134.201981,687.529114 
	C130.314072,683.273926 126.968102,678.420654 123.973846,673.475159 
	C119.063393,665.364624 114.116402,657.200378 110.168526,648.606934 
	C107.014771,641.741943 104.799919,634.324463 103.109558,626.936890 
	C100.631966,616.108948 98.355148,605.153320 97.238876,594.126038 
	C96.564728,587.466309 98.442741,580.578979 98.830345,573.774353 
	C99.514977,561.755310 102.129471,550.206299 107.009445,539.234070 
	C111.092133,530.054443 114.914444,520.670776 119.975647,512.036011 
	C127.001373,500.049530 136.598236,490.024231 146.842972,480.614258 
	C166.286926,462.754517 189.183975,451.575989 214.525970,445.018738 
	C232.284363,440.423737 250.490433,438.742188 268.702881,438.153015 
	C290.130615,437.459930 311.595551,437.878479 333.044373,437.884186 
	C380.824249,437.896851 428.604126,437.954681 476.384003,437.989380 
	C489.092133,437.998596 501.800293,437.990753 515.598450,437.990753 
	C513.570007,440.246002 512.199280,441.614685 511.004639,443.122833 
	C501.831940,454.702454 492.859344,466.445343 483.487671,477.860931 
	C476.927856,485.851379 469.634979,493.238159 463.030762,501.194458 
	C452.836670,513.475464 443.102509,526.138794 432.886169,538.400757 
	C425.213409,547.609741 416.883942,556.272156 409.226776,565.493408 
	C402.152649,574.012451 395.793060,583.123718 388.745972,591.666687 
	C376.617432,606.369690 364.191284,620.827087 351.905609,635.400696 
	C344.539154,644.138977 337.213989,652.912048 329.848206,661.651001 
	C324.559540,667.925537 319.169556,674.115662 313.940826,680.439453 
	C306.444275,689.505920 299.179169,698.766296 291.575928,707.741089 
	C285.978271,714.348572 279.862701,720.515747 274.221771,727.088440 
	C267.246033,735.216370 260.601135,743.627563 253.665771,751.790955 
	C247.893387,758.585510 241.373749,764.809448 236.142593,771.984314 
	C228.398880,782.605286 222.558502,794.031372 220.704010,807.614441 
	C219.153183,818.973267 221.426300,829.174927 225.785019,839.125549 
	C229.582123,847.794189 235.697586,854.761230 243.149414,860.877136 
	C254.425827,870.132141 267.219818,875.463318 281.470032,875.819885 
	C306.944855,876.457336 332.447174,875.972229 357.937653,876.053162 
	C359.898102,876.059387 361.870270,877.232361 363.812592,877.164429 
	C369.257996,876.973877 374.686310,876.303284 380.131744,876.100647 
	C381.234467,876.059570 382.441406,877.846802 383.498779,877.744263 
	C386.506378,877.452515 389.460693,876.083862 392.437469,876.079102 
	C457.758942,875.975891 523.080566,875.982483 588.402100,876.073120 
	C590.734802,876.076355 593.061890,877.170227 595.401855,877.711304 
	C595.797119,877.802795 596.259521,877.726746 596.665894,877.626587 
	C598.850708,877.088196 601.025574,876.041138 603.207581,876.031494 
	C626.698120,875.928040 650.205872,876.491638 673.671326,875.724670 
	C681.821289,875.458252 690.461121,873.259521 697.842651,869.760803 
	C715.773071,861.262146 726.928650,846.563232 732.061707,826.478394 
z"/>
<path fill="#FFFFFF" opacity="1.000000" stroke="none" 
	d="
M732.031250,826.905640 
	C726.928650,846.563232 715.773071,861.262146 697.842651,869.760803 
	C690.461121,873.259521 681.821289,875.458252 673.671326,875.724670 
	C650.205872,876.491638 626.698120,875.928040 603.207581,876.031494 
	C601.025574,876.041138 598.850708,877.088196 596.665894,877.626587 
	C596.259521,877.726746 595.797119,877.802795 595.401855,877.711304 
	C593.061890,877.170227 590.734802,876.076355 588.402100,876.073120 
	C523.080566,875.982483 457.758942,875.975891 392.437469,876.079102 
	C389.460693,876.083862 386.506378,877.452515 383.498779,877.744263 
	C382.441406,877.846802 381.234467,876.059570 380.131744,876.100647 
	C374.686310,876.303284 369.257996,876.973877 363.812592,877.164429 
	C361.870270,877.232361 359.898102,876.059387 357.937653,876.053162 
	C332.447174,875.972229 306.944855,876.457336 281.470032,875.819885 
	C267.219818,875.463318 254.425827,870.132141 243.149414,860.877136 
	C235.697586,854.761230 229.582123,847.794189 225.785019,839.125549 
	C221.426300,829.174927 219.153183,818.973267 220.704010,807.614441 
	C222.558502,794.031372 228.398880,782.605286 236.142593,771.984314 
	C241.373749,764.809448 247.893387,758.585510 253.665771,751.790955 
	C260.601135,743.627563 267.246033,735.216370 274.221771,727.088440 
	C279.862701,720.515747 285.978271,714.348572 291.575928,707.741089 
	C299.179169,698.766296 306.444275,689.505920 313.940826,680.439453 
	C319.169556,674.115662 324.559540,667.925537 329.848206,661.651001 
	C337.213989,652.912048 344.539154,644.138977 351.905609,635.400696 
	C364.191284,620.827087 376.617432,606.369690 388.745972,591.666687 
	C395.793060,583.123718 402.152649,574.012451 409.226776,565.493408 
	C416.883942,556.272156 425.213409,547.609741 432.886169,538.400757 
	C443.102509,526.138794 452.836670,513.475464 463.030762,501.194458 
	C469.634979,493.238159 476.927856,485.851379 483.487671,477.860931 
	C492.859344,466.445343 501.831940,454.702454 511.004639,443.122833 
	C512.199280,441.614685 513.570007,440.246002 515.598450,437.990753 
	C501.800293,437.990753 489.092133,437.998596 476.384003,437.989380 
	C428.604126,437.954681 380.824249,437.896851 333.044373,437.884186 
	C311.595551,437.878479 290.130615,437.459930 268.702881,438.153015 
	C250.490433,438.742188 232.284363,440.423737 214.525970,445.018738 
	C189.183975,451.575989 166.286926,462.754517 146.842972,480.614258 
	C136.598236,490.024231 127.001373,500.049530 119.975647,512.036011 
	C114.914444,520.670776 111.092133,530.054443 107.009445,539.234070 
	C102.129471,550.206299 99.514977,561.755310 98.830345,573.774353 
	C98.442741,580.578979 96.564728,587.466309 97.238876,594.126038 
	C98.355148,605.153320 100.631966,616.108948 103.109558,626.936890 
	C104.799919,634.324463 107.014771,641.741943 110.168526,648.606934 
	C114.116402,657.200378 119.063393,665.364624 123.973846,673.475159 
	C126.968102,678.420654 130.314072,683.273926 134.201981,687.529114 
	C139.850006,693.710571 145.776337,699.741882 152.217468,705.071716 
	C163.839722,714.688599 176.390625,723.030090 190.336426,728.998352 
	C195.591812,731.247498 201.073990,732.961792 206.417053,735.012878 
	C209.845596,736.329102 213.302261,737.630981 216.569809,739.287537 
	C218.871490,740.454468 219.593231,742.230042 218.064545,744.963135 
	C208.616989,761.854309 199.410248,778.880066 189.965363,795.772705 
	C187.965057,799.350342 186.010071,801.256653 180.430252,799.554016 
	C167.159271,795.504211 154.735550,789.778076 142.807098,783.078247 
	C133.318192,777.748718 124.324661,771.363831 115.744026,764.639832 
	C107.349396,758.061707 99.548141,750.675842 91.873428,743.244873 
	C85.322350,736.901733 78.671791,730.474182 73.256584,723.197388 
	C67.762032,715.813965 63.774704,707.316162 59.041485,699.357422 
	C52.083401,687.657715 46.522606,675.305115 42.789398,662.251953 
	C39.748802,651.620422 37.446228,640.770630 35.026569,629.970581 
	C31.618923,614.760742 32.434296,599.242371 32.060669,583.823425 
	C31.977760,580.401917 32.812012,576.966309 32.921150,573.527588 
	C32.959305,572.325439 32.058746,571.103943 31.640501,569.873047 
	C31.396822,569.155884 30.849274,568.108704 31.135357,567.709534 
	C35.826530,561.164978 34.071499,553.197449 36.034584,546.081360 
	C38.841206,535.907593 41.833565,525.783630 44.863735,515.673584 
	C45.822956,512.473145 46.853512,509.228943 48.374359,506.273956 
	C53.550152,496.217285 58.563095,486.042664 64.381119,476.359436 
	C71.432312,464.623871 79.767921,453.802612 89.933746,444.448914 
	C94.317207,440.415619 97.758400,435.337921 102.235565,431.431366 
	C109.622955,424.985352 117.471260,419.063446 125.183945,412.995178 
	C138.176086,402.773132 152.571823,395.193359 168.241974,389.900879 
	C178.350052,386.487000 188.225967,382.373138 198.376526,379.102448 
	C204.303909,377.192474 210.825180,377.013672 216.624191,374.841217 
	C227.766983,370.666901 239.544479,371.107513 250.932846,368.926971 
	C251.932785,368.735504 253.275955,367.693726 253.550812,366.774963 
	C255.821915,359.183899 257.808960,351.508331 260.035431,343.903229 
	C260.879791,341.019073 262.219177,338.282440 263.138153,335.416138 
	C263.457336,334.420532 263.188965,333.236603 263.188965,331.979370 
	C264.290833,330.161804 265.888123,327.916138 267.090179,325.475739 
	C271.869598,315.772400 276.012238,305.715118 281.363373,296.344330 
	C287.424255,285.730713 293.898346,275.226196 301.356354,265.573212 
	C308.692505,256.077942 317.092987,247.300415 325.751343,238.960541 
	C334.518799,230.515579 344.111389,222.917328 353.466156,215.096100 
	C358.405884,210.966171 363.404785,206.842804 368.760986,203.296448 
	C372.716339,200.677582 377.264801,198.936996 381.598267,196.910385 
	C390.221039,192.877808 398.655273,188.303085 407.573822,185.075302 
	C420.191132,180.508850 433.129761,176.798767 446.024994,173.045502 
	C452.011200,171.303146 458.251221,170.453888 464.320007,168.970139 
	C481.443237,164.783737 498.881073,163.615326 516.385803,164.127686 
	C526.819092,164.433075 537.379089,165.183243 547.588928,167.210342 
	C562.311218,170.133362 577.044495,173.569016 591.258789,178.323334 
	C605.533020,183.097748 619.746277,188.706757 632.948181,195.864578 
	C648.238342,204.154572 663.083313,213.643463 676.839783,224.271057 
	C688.939026,233.618393 699.826355,244.740784 710.236084,256.014526 
	C722.223022,268.996399 732.660156,283.305420 741.055054,298.989380 
	C744.858398,306.095245 748.961304,313.040771 753.036865,320.251038 
	C758.175476,320.251038 764.262756,320.067291 770.333984,320.300415 
	C776.997925,320.556274 783.650635,321.152344 790.301514,321.684021 
	C794.861023,322.048523 799.490906,322.162262 803.943787,323.088348 
	C811.406616,324.640503 818.802795,326.577942 826.135376,328.673950 
	C834.000061,330.922058 841.917175,333.136627 849.516663,336.117371 
	C856.322021,338.786591 862.727600,342.475922 869.307739,345.718781 
	C872.699951,347.390564 876.174316,348.918732 879.456726,350.784241 
	C883.675842,353.182037 887.911194,355.617065 891.828308,358.464264 
	C897.278931,362.426178 902.730103,366.472717 907.664612,371.040955 
	C917.092163,379.768738 926.454285,388.607941 935.268616,397.943726 
	C941.579163,404.627533 947.551819,411.803894 952.574158,419.480774 
	C957.447632,426.930054 961.080139,435.219879 964.946655,443.289551 
	C967.703979,449.044281 970.311523,454.923645 972.331177,460.966248 
	C975.202209,469.555817 977.575867,478.317841 979.976257,487.057190 
	C984.274841,502.707336 983.361023,518.773987 982.789917,534.668579 
	C982.413757,545.137573 980.786011,555.716858 978.338684,565.915649 
	C975.478882,577.833374 971.839233,589.686462 967.195251,601.017334 
	C962.970886,611.324280 957.222229,621.051758 951.651428,630.750854 
	C943.762207,644.486389 933.447205,656.474976 922.011292,667.267029 
	C907.819824,680.659363 892.729309,693.044006 874.626038,701.115112 
	C865.177917,705.327515 856.071472,710.404053 846.409424,714.016846 
	C829.270874,720.425232 811.473999,724.655273 793.095093,724.901611 
	C749.681763,725.483521 706.263123,725.862793 662.846069,725.929077 
	C564.559875,726.079285 466.273315,725.976196 367.987061,726.103699 
	C365.984070,726.106323 363.325073,727.109619 362.084595,728.582825 
	C351.574677,741.064636 341.329132,753.768921 330.992767,766.397034 
	C323.248016,775.858948 315.424500,785.257446 307.777740,794.797791 
	C305.974884,797.047058 304.742035,799.753174 303.212250,802.306946 
	C306.279114,808.339905 311.566223,810.013306 317.832367,810.012085 
	C404.990692,809.994751 492.148987,810.000427 579.307312,810.000366 
	C626.776855,810.000305 674.246460,810.000000 721.716003,809.999878 
	C723.309143,809.999878 724.902283,809.999939 727.651123,809.999939 
	C725.841858,809.151367 725.089172,808.798401 724.059326,808.315369 
	C733.046326,807.531555 735.307739,810.145630 733.332458,818.350647 
	C732.692749,821.007874 732.473389,823.766296 732.031250,826.905640 
M388.500000,368.999512 
	C462.661011,368.999512 536.822021,368.999146 610.983032,369.000214 
	C617.239990,369.000305 623.057495,373.214264 625.040039,378.988251 
	C629.935059,393.244537 626.118713,406.947601 619.588867,419.018555 
	C613.107849,430.999054 603.643188,441.408203 595.156006,452.247253 
	C588.424194,460.844482 581.110107,468.983032 574.200867,477.444672 
	C563.064697,491.083008 552.070923,504.837463 540.974548,518.508423 
	C533.639648,527.544983 526.230103,536.520752 518.854797,545.524536 
	C512.632202,553.121033 506.462830,560.761780 500.177490,568.305969 
	C489.500366,581.121643 478.699493,593.834412 468.047119,606.670532 
	C459.291107,617.221497 450.691711,627.902283 441.991425,638.499695 
	C435.728180,646.128723 429.413147,653.715149 422.557953,662.001343 
	C425.087067,662.001343 426.676788,662.000916 428.266541,662.001343 
	C527.525879,662.027527 626.785156,662.031006 726.044434,662.118896 
	C734.945740,662.126770 743.933716,663.604858 752.727661,662.773438 
	C767.183472,661.406860 781.882507,663.164307 796.143311,659.083618 
	C803.654724,656.934143 811.769836,656.564697 818.976807,653.758972 
	C829.381714,649.708252 839.389771,644.508423 849.237305,639.188354 
	C861.659241,632.477539 872.349854,623.310364 881.545410,612.705139 
	C889.639954,603.369812 896.708923,593.286255 902.191284,581.966309 
	C909.306641,567.274475 913.364746,551.840698 914.756714,535.863159 
	C915.697815,525.060669 915.284119,513.906799 913.591919,503.208160 
	C912.764343,497.975403 913.896362,491.102478 908.093445,487.214172 
	C908.631104,486.585144 909.168762,485.956116 908.736694,486.461639 
	C907.838684,482.677277 907.682861,479.543304 906.383301,476.991913 
	C901.811768,468.016632 897.544861,458.758606 891.842224,450.521790 
	C885.742798,441.711884 878.990417,432.983765 871.008057,425.935791 
	C859.468872,415.747314 846.603333,406.947266 832.163818,401.126160 
	C824.073730,397.864746 815.694336,395.039246 807.192566,393.161133 
	C798.968933,391.344452 790.441101,390.429260 782.011230,390.132080 
	C769.225037,389.681396 756.328674,389.251221 743.628357,390.425751 
	C732.981079,391.410461 722.607483,395.055817 712.000610,396.866821 
	C702.755554,398.445312 703.541443,398.020264 701.005859,389.454712 
	C698.014648,379.350128 695.247986,369.172028 691.974792,359.159576 
	C686.723267,343.095581 677.682434,329.089600 668.123840,315.272247 
	C654.561157,295.666840 637.650085,279.454590 618.171509,266.169403 
	C606.748230,258.378296 594.119568,252.158112 581.526978,246.323853 
	C562.725464,237.612976 542.451538,234.393494 521.919922,233.082870 
	C513.985107,232.576370 505.967712,232.618317 498.030121,233.101959 
	C489.099213,233.646103 480.214783,234.960876 471.312195,235.958740 
	C460.722839,237.145645 450.462219,239.623138 440.605133,243.728607 
	C432.831360,246.966385 424.479431,249.223450 417.357910,253.527206 
	C405.805054,260.508942 394.832336,268.519897 384.008270,276.622162 
	C367.855804,288.712952 356.488586,304.998932 346.056000,321.942139 
	C342.270325,328.090363 338.495819,334.352966 335.704163,340.979584 
	C331.916382,349.970673 329.078156,359.361786 325.685394,368.999542 
	C346.852234,368.999542 367.176117,368.999542 388.500000,368.999512 
z"/>
<path fill="#000000" opacity="1.000000" stroke="none" 
	d="
M388.000000,368.999512 
	C367.176117,368.999542 346.852234,368.999542 325.685394,368.999542 
	C329.078156,359.361786 331.916382,349.970673 335.704163,340.979584 
	C338.495819,334.352966 342.270325,328.090363 346.056000,321.942139 
	C356.488586,304.998932 367.855804,288.712952 384.008270,276.622162 
	C394.832336,268.519897 405.805054,260.508942 417.357910,253.527206 
	C424.479431,249.223450 432.831360,246.966385 440.605133,243.728607 
	C450.462219,239.623138 460.722839,237.145645 471.312195,235.958740 
	C480.214783,234.960876 489.099213,233.646103 498.030121,233.101959 
	C505.967712,232.618317 513.985107,232.576370 521.919922,233.082870 
	C542.451538,234.393494 562.725464,237.612976 581.526978,246.323853 
	C594.119568,252.158112 606.748230,258.378296 618.171509,266.169403 
	C637.650085,279.454590 654.561157,295.666840 668.123840,315.272247 
	C677.682434,329.089600 686.723267,343.095581 691.974792,359.159576 
	C695.247986,369.172028 698.014648,379.350128 701.005859,389.454712 
	C703.541443,398.020264 702.755554,398.445312 712.000610,396.866821 
	C722.607483,395.055817 732.981079,391.410461 743.628357,390.425751 
	C756.328674,389.251221 769.225037,389.681396 782.011230,390.132080 
	C790.441101,390.429260 798.968933,391.344452 807.192566,393.161133 
	C815.694336,395.039246 824.073730,397.864746 832.163818,401.126160 
	C846.603333,406.947266 859.468872,415.747314 871.008057,425.935791 
	C878.990417,432.983765 885.742798,441.711884 891.842224,450.521790 
	C897.544861,458.758606 901.811768,468.016632 906.383301,476.991913 
	C907.682861,479.543304 907.838684,482.677277 908.736694,486.461639 
	C909.168762,485.956116 908.631104,486.585144 908.093445,487.214172 
	C913.896362,491.102478 912.764343,497.975403 913.591919,503.208160 
	C915.284119,513.906799 915.697815,525.060669 914.756714,535.863159 
	C913.364746,551.840698 909.306641,567.274475 902.191284,581.966309 
	C896.708923,593.286255 889.639954,603.369812 881.545410,612.705139 
	C872.349854,623.310364 861.659241,632.477539 849.237305,639.188354 
	C839.389771,644.508423 829.381714,649.708252 818.976807,653.758972 
	C811.769836,656.564697 803.654724,656.934143 796.143311,659.083618 
	C781.882507,663.164307 767.183472,661.406860 752.727661,662.773438 
	C743.933716,663.604858 734.945740,662.126770 726.044434,662.118896 
	C626.785156,662.031006 527.525879,662.027527 428.266541,662.001343 
	C426.676788,662.000916 425.087067,662.001343 422.557953,662.001343 
	C429.413147,653.715149 435.728180,646.128723 441.991425,638.499695 
	C450.691711,627.902283 459.291107,617.221497 468.047119,606.670532 
	C478.699493,593.834412 489.500366,581.121643 500.177490,568.305969 
	C506.462830,560.761780 512.632202,553.121033 518.854797,545.524536 
	C526.230103,536.520752 533.639648,527.544983 540.974548,518.508423 
	C552.070923,504.837463 563.064697,491.083008 574.200867,477.444672 
	C581.110107,468.983032 588.424194,460.844482 595.156006,452.247253 
	C603.643188,441.408203 613.107849,430.999054 619.588867,419.018555 
	C626.118713,406.947601 629.935059,393.244537 625.040039,378.988251 
	C623.057495,373.214264 617.239990,369.000305 610.983032,369.000214 
	C536.822021,368.999146 462.661011,368.999512 388.000000,368.999512 
z"/>
</svg>