<?xml version="1.0" encoding="UTF-8"?>
<svg version="1.1" xmlns="http://www.w3.org/2000/svg" width="1024" height="1024" viewBox="0 0 1024 1024">
<style>
  /* This CSS block handles the dynamic coloring */

  /* Default fill for light backgrounds */
  .dynamic-fill {
    fill: black;
  }

  /* Change to white fill for dark backgrounds */
  @media (prefers-color-scheme: dark) {
    .dynamic-fill {
      fill: white;
    }
  }
</style>
<path d="M0 0 C0.33 0.33 0.66 0.66 1 1 C4.671496 1.6623833 8.34780098 2.24188362 12.03515625 2.80664062 C16.81900383 3.5646723 21.34569543 4.6270656 26 6 C28.66763327 6.45388303 31.30580583 6.71640061 34 7 C34 7.66 34 8.32 34 9 C34.7734375 9.18175781 35.546875 9.36351562 36.34375 9.55078125 C42.4185483 11.01685262 48.2050553 12.65973387 54 15 C54 15.66 54 16.32 54 17 C55.216875 17.04125 56.43375 17.0825 57.6875 17.125 C64.39769773 17.86354377 70.04151725 20.99922194 76 24 C77.51207031 24.74636719 77.51207031 24.74636719 79.0546875 25.5078125 C81.37667589 26.65893989 83.69142676 27.82226286 86 29 C86 29.66 86 30.32 86 31 C86.72058594 31.10441406 87.44117188 31.20882812 88.18359375 31.31640625 C91.28258752 32.0685892 93.37427907 33.2381455 96.0625 34.9375 C98.99128483 36.77419557 101.87959153 38.50825738 105 40 C105 40.66 105 41.32 105 42 C106.98 42.66 108.96 43.32 111 44 C111 44.66 111 45.32 111 46 C112.01126953 46.3403125 112.01126953 46.3403125 113.04296875 46.6875 C116.81938334 48.3636893 119.97093585 50.59104541 123.3125 53 C123.95767578 53.45117188 124.60285156 53.90234375 125.26757812 54.3671875 C126.88501255 55.52420937 128.44793244 56.75666577 130 58 C130 58.66 130 59.32 130 60 C130.85271484 60.39445312 130.85271484 60.39445312 131.72265625 60.796875 C138.30076029 64.27209978 143.4318474 69.22263053 148 75 C148.99 75.66 149.98 76.32 151 77 C151 77.66 151 78.32 151 79 C151.99 79.33 152.98 79.66 154 80 C154 80.66 154 81.32 154 82 C154.66 82 155.32 82 156 82 C156 82.66 156 83.32 156 84 C156.66 84 157.32 84 158 84 C162.06920634 87.86766546 165.07714545 91.71214998 167 97 C167.99 97.33 168.98 97.66 170 98 C171.34692383 99.54711914 171.34692383 99.54711914 172.70703125 101.53515625 C173.21169922 102.26283203 173.71636719 102.99050781 174.23632812 103.74023438 C174.75646484 104.50658203 175.27660156 105.27292969 175.8125 106.0625 C176.83862811 107.55422236 177.86596966 109.04511076 178.89453125 110.53515625 C179.40064941 111.2739502 179.90676758 112.01274414 180.42822266 112.77392578 C182.4853465 115.68738573 184.6789626 118.48534587 186.9050293 121.27124023 C188 123 188 123 188 126 C188.66 126 189.32 126 190 126 C191.4606285 128.64738916 192 129.89448334 192 133 C192.66 133 193.32 133 194 133 C195.4606285 135.64738916 196 136.89448334 196 140 C196.66 140 197.32 140 198 140 C202.40774487 149.41002278 202.40774487 149.41002278 203 154 C203.598125 153.67 204.19625 153.34 204.8125 153 C207 152 207 152 210 152 C210 152.66 210 153.32 210 154 C210.76586426 153.91766113 211.53172852 153.83532227 212.32080078 153.75048828 C220.95772131 152.9393575 229.23893685 153.18518998 237.875 153.875 C239.77378906 154.01228516 239.77378906 154.01228516 241.7109375 154.15234375 C250.07988998 154.77649882 257.92055226 155.67202353 266 158 C268.4859399 158.51064689 270.97564617 158.98423399 273.47265625 159.4375 C276.41064604 160.09139572 279.15340703 161.01489433 282 162 C283.69654567 162.56661264 285.39316816 163.13299528 287.08984375 163.69921875 C298.40897205 167.52932625 309.32678313 171.60437694 320 177 C320 177.66 320 178.32 320 179 C320.86625 179.28875 321.7325 179.5775 322.625 179.875 C324.295625 180.431875 324.295625 180.431875 326 181 C327.03125 181.28875 328.0625 181.5775 329.125 181.875 C332.3500349 183.13697018 333.60649018 184.53609283 336 187 C338.09741884 188.34834068 340.22730424 189.6119955 342.390625 190.8515625 C342.92171875 191.23054687 343.4528125 191.60953125 344 192 C344 192.66 344 193.32 344 194 C344.721875 194.268125 345.44375 194.53625 346.1875 194.8125 C348.99766383 195.99901362 351.48416557 197.27485639 354 199 C354 199.66 354 200.32 354 201 C354.8353125 201.37125 354.8353125 201.37125 355.6875 201.75 C364.07292255 206.28266084 371.39439529 214.22056358 378 221 C378.59167969 221.56976563 379.18335938 222.13953125 379.79296875 222.7265625 C384.97826631 227.76141622 389.85185841 233.06462719 394 239 C394 239.66 394 240.32 394 241 C394.99 241.33 395.98 241.66 397 242 C397.6875 244.0625 397.6875 244.0625 398 246 C398.66 246 399.32 246 400 246 C400.66 247.98 401.32 249.96 402 252 C402.66 252 403.32 252 404 252 C405.62640734 254.91588402 407.25087728 257.83284294 408.875 260.75 C409.56529297 261.9875 409.56529297 261.9875 410.26953125 263.25 C410.93662109 264.44882812 410.93662109 264.44882812 411.6171875 265.671875 C412.02565918 266.4050293 412.43413086 267.13818359 412.85498047 267.89355469 C413.23283691 268.58868164 413.61069336 269.28380859 414 270 C414.37914551 270.66676758 414.75829102 271.33353516 415.14892578 272.02050781 C416 274 416 274 416 278 C416.66 278 417.32 278 418 278 C421.54533222 285.96568262 424.37167559 294.00335376 426.88671875 302.3359375 C427.57443567 304.59937074 428.29790587 306.85270157 429.078125 309.0859375 C430.04442194 312.1404185 430.58915443 315.08375571 431.0625 318.25 C431.60442419 322.26064758 431.60442419 322.26064758 433 326 C434.02990946 332.06794627 434.14834045 338.17363074 434.1328125 344.3125 C434.13376923 345.16626221 434.13472595 346.02002441 434.13571167 346.8996582 C434.13638726 348.69124425 434.13457668 350.48283283 434.13037109 352.27441406 C434.125014 354.99289528 434.13033735 357.71121132 434.13671875 360.4296875 C434.13605786 362.18229203 434.13477647 363.93489645 434.1328125 365.6875 C434.13483673 366.48776611 434.13686096 367.28803223 434.13894653 368.11254883 C434.11032039 375.11525396 433.5385015 382.01952197 432.0625 388.875 C431.11257846 393.3853682 430.31479029 397.90970512 429.5625 402.45703125 C428.9690387 405.13997087 428.02908856 407.4531909 427 410 C426.15880547 412.71499531 425.39746639 415.45227362 424.625 418.1875 C422.77551883 424.62507727 420.70053088 430.85968678 418 437 C417.34 437 416.68 437 416 437 C415.85111328 438.27423828 415.85111328 438.27423828 415.69921875 439.57421875 C414.91808823 443.4013219 413.58128666 446.33349578 411.8125 449.8125 C411.50296387 450.42198486 411.19342773 451.03146973 410.87451172 451.65942383 C408.59301338 456.06810784 406.04926927 460.19580795 403.1640625 464.23046875 C401.82197738 466.10541663 401.82197738 466.10541663 401 469 C399.66666667 470.33333333 398.33333333 471.66666667 397 473 C396.29875 474.0725 395.5975 475.145 394.875 476.25 C394.25625 477.1575 393.6375 478.065 393 479 C392.34 479 391.68 479 391 479 C390.77570312 479.53109375 390.55140625 480.0621875 390.3203125 480.609375 C388.55071292 483.81350205 386.24882467 486.48582555 383.875 489.25 C383.38652588 489.82194092 382.89805176 490.39388184 382.39477539 490.9831543 C374.127067 500.57629279 374.127067 500.57629279 370 504 C369.34 504 368.68 504 368 504 C368 504.66 368 505.32 368 506 C364.53846154 509 364.53846154 509 362 509 C361.67 509.99 361.34 510.98 361 512 C358.89083663 513.77613758 356.79837445 515.3977364 354.5625 517 C353.90088867 517.47912842 353.23927734 517.95825684 352.55761719 518.4519043 C345.26915588 523.6471778 337.67104009 528.31501842 329.95800781 532.84863281 C328.33751267 533.80153245 326.72610209 534.76986242 325.1171875 535.7421875 C291.56058516 555.202913 253.00284159 559.06740866 215.09765625 559.31640625 C213.75385101 559.32627357 212.41004698 559.33630571 211.06624413 559.34649277 C202.82900194 559.40889913 194.59173111 559.46386341 186.35441273 559.51514697 C180.66246483 559.55106842 174.97057649 559.59265561 169.27868652 559.63674927 C122.41678348 559.99675925 75.56099875 560.00181068 28.69873828 559.77501804 C17.93619092 559.72328751 7.17363317 559.680712 -3.588974 559.64360046 C-5.1309657 559.63822698 -6.67295739 559.63285173 -8.21494907 559.62747473 C-14.39649706 559.60602174 -20.57804561 559.58479156 -26.75959814 559.56468236 C-44.57169229 559.50651404 -62.38313794 559.42269388 -80.19480669 559.28514525 C-92.81395561 559.18826641 -105.43288242 559.12714206 -118.05237824 559.10068822 C-125.68016712 559.08341917 -133.30655074 559.0366932 -140.93387266 558.95002799 C-146.69497275 558.88760138 -152.45523133 558.87743979 -158.2166177 558.88718116 C-160.5630254 558.88286035 -162.90947459 558.8614015 -165.2555455 558.82141316 C-177.27891621 558.13388074 -177.27891621 558.13388074 -188.12258148 562.19804573 C-190.18153495 564.72689937 -191.61023 567.06330676 -193 570 C-193.73992187 570.97195313 -194.47984375 571.94390625 -195.2421875 572.9453125 C-196.34884294 574.42261809 -197.45293242 575.90184869 -198.5546875 577.3828125 C-199.03164063 577.91648437 -199.50859375 578.45015625 -200 579 C-200.66 579 -201.32 579 -202 579 C-202.66 580.65 -203.32 582.3 -204 584 C-204.66 584 -205.32 584 -206 584 C-206.2578125 584.56203125 -206.515625 585.1240625 -206.78125 585.703125 C-208.14169777 588.26704579 -209.72788962 590.45226365 -211.5 592.75 C-212.1084375 593.54921875 -212.716875 594.3484375 -213.34375 595.171875 C-213.8903125 595.77515625 -214.436875 596.3784375 -215 597 C-215.66 597 -216.32 597 -217 597 C-217.27545654 597.58338135 -217.55091309 598.1667627 -217.8347168 598.76782227 C-219.75457439 602.4454376 -222.32041791 605.63179982 -224.8125 608.9375 C-225.33392578 609.64068359 -225.85535156 610.34386719 -226.39257812 611.06835938 C-229.3605207 615.02191084 -232.44652652 618.54720827 -236 622 C-237.25978551 623.47437823 -238.49150177 624.97342248 -239.6875 626.5 C-240.26886719 627.2321875 -240.85023438 627.964375 -241.44921875 628.71875 C-243.06862849 631.10095476 -244.15117194 633.24815418 -245 636 C-243.68557311 638.706173 -242.49764843 639.7494291 -239.81950599 641.09790027 C-236.40182464 642.19138595 -233.54071974 642.24827756 -229.95040417 642.24609566 C-229.24902499 642.24840335 -228.54764581 642.25071103 -227.82501271 642.25308865 C-225.46911786 642.2583926 -223.11349505 642.24940136 -220.75761414 642.24050903 C-219.05388046 642.24138102 -217.35014704 642.24313187 -215.64641505 642.24568737 C-210.96022915 642.25016626 -206.27413441 642.24214975 -201.58796012 642.23213124 C-196.53619441 642.22350686 -191.48443397 642.22641619 -186.43266296 642.22793579 C-177.67863939 642.22898528 -168.92464559 642.22270197 -160.1706295 642.21146011 C-147.51374276 642.19521679 -134.85687043 642.1899983 -122.1999744 642.18748413 C-101.6657788 642.18310519 -81.13159908 642.1697907 -60.59741211 642.15087891 C-40.64851969 642.13252525 -20.69963158 642.11836623 -0.75073242 642.10986328 C0.47859614 642.10933783 1.7079247 642.10881239 2.97450564 642.10827102 C9.1415898 642.10566097 15.30867399 642.10313355 21.47575819 642.10064721 C72.65051644 642.07990853 123.82525744 642.04467759 175 642 C175 641.67 175 641.34 175 641 C176.98 641 178.96 641 181 641 C181 641.66 181 642.32 181 643 C182.32 643 183.64 643 185 643 C184.83812595 654.19874144 183.06450204 663.5612789 179 674 C178.34 674 177.68 674 177 674 C176.84724609 675.10408203 176.84724609 675.10408203 176.69140625 676.23046875 C175.49106147 681.03862947 172.18090328 684.30444765 169 688 C168.41089844 688.68578125 167.82179688 689.3715625 167.21484375 690.078125 C159.66121808 698.22513528 149.80044901 704.3136873 139 707 C137.86095215 707.33249756 136.7219043 707.66499512 135.54833984 708.00756836 C130.36191123 709.2967113 125.2561187 709.3706347 119.93359375 709.44921875 C118.87312332 709.47136444 117.81265289 709.49351013 116.720047 709.5163269 C113.29263066 709.5838796 109.86520089 709.63658615 106.4375 709.6875 C104.69563416 709.717939 104.69563416 709.717939 102.9185791 709.74899292 C84.58083246 710.06740721 66.31672176 709.97603604 48 709 C48 709.66 48 710.32 48 711 C47.34 711 46.68 711 46 711 C46 710.34 46 709.68 46 709 C44.7841069 709.02963837 43.56821381 709.05927673 42.31547546 709.08981323 C1.43938845 710.06101376 -39.42336893 710.15687417 -80.30865777 710.12856841 C-87.41703249 710.12417406 -94.52538983 710.1273706 -101.63376349 710.1321975 C-108.5834637 710.13672469 -115.53315633 710.13738441 -122.48285753 710.13475883 C-126.59296321 710.13320787 -130.70305695 710.13297194 -134.81316185 710.13629532 C-138.62968595 710.13917185 -142.44617674 710.13720262 -146.26269722 710.13140106 C-147.65956949 710.13007704 -149.05644457 710.13046153 -150.45331573 710.13266373 C-152.35426739 710.13538636 -154.25522517 710.13137066 -156.15617371 710.12698364 C-157.21892108 710.12660662 -158.28166845 710.12622959 -159.37662029 710.12584114 C-162 710 -162 710 -165 709 C-165 709.66 -165 710.32 -165 711 C-165.66 711 -166.32 711 -167 711 C-167 710.34 -167 709.68 -167 709 C-168.299375 709.185625 -169.59875 709.37125 -170.9375 709.5625 C-175.80547826 710.11884037 -180.15954005 709.69149428 -185 709 C-185.33 709.66 -185.66 710.32 -186 711 C-186 710.34 -186 709.68 -186 709 C-186.73375351 709.01474869 -187.46750702 709.02949738 -188.22349548 709.04469299 C-195.26461739 709.18487752 -202.30583523 709.31769124 -209.34723568 709.4429636 C-212.96408 709.50755053 -216.58083599 709.57463036 -220.19750977 709.64819336 C-238.16967001 710.01167196 -256.0400805 710.00175528 -274 709 C-274 708.34 -274 707.68 -274 707 C-275.32 707 -276.64 707 -278 707 C-278.33 707.66 -278.66 708.32 -279 709 C-279 708.34 -279 707.68 -279 707 C-280.98 707 -282.96 707 -285 707 C-285 706.34 -285 705.68 -285 705 C-285.72832031 704.87753906 -286.45664062 704.75507812 -287.20703125 704.62890625 C-295.2878848 702.80930146 -301.67971894 697.95889169 -307.87109375 692.671875 C-309.98650392 690.81714736 -309.98650392 690.81714736 -313 690 C-313.95387889 688.39884616 -314.89482875 686.78843945 -315.765625 685.140625 C-317.16898028 682.70695825 -318.807847 680.55424116 -320.5 678.3125 C-328.93930518 666.4322764 -330.07374974 651.95790548 -328.6875 637.8125 C-327.15567706 629.31784554 -323.67364049 621.7683702 -320 614 C-319.34 614 -318.68 614 -318 614 C-317.9175 613.46375 -317.835 612.9275 -317.75 612.375 C-316.18947021 607.43332233 -312.88233692 603.36469199 -309 600 C-308.34 600 -307.68 600 -307 600 C-306.78214844 599.29875 -306.56429687 598.5975 -306.33984375 597.875 C-304.67520657 594.30306715 -302.27670259 591.78851583 -299.5625 589 C-296.22975814 585.54901368 -293.35211111 582.21174896 -291 578 C-289.4375 576.1875 -289.4375 576.1875 -288 575 C-287.34 575 -286.68 575 -286 575 C-285.01 572.525 -285.01 572.525 -284 570 C-283.34 570 -282.68 570 -282 570 C-281.34 568.68 -280.68 567.36 -280 566 C-279.34 566 -278.68 566 -278 566 C-277.7215625 565.01 -277.7215625 565.01 -277.4375 564 C-275.71434443 560.40384925 -273.43406793 557.88813025 -270.75390625 554.96484375 C-268.9485146 553.01498959 -268.9485146 553.01498959 -267.40234375 550.75390625 C-266.93957031 550.17511719 -266.47679687 549.59632813 -266 549 C-265.34 549 -264.68 549 -264 549 C-263.5978125 548.13375 -263.5978125 548.13375 -263.1875 547.25 C-261.97070811 544.94449957 -260.69666121 542.97943808 -259 541 C-258.34 541 -257.68 541 -257 541 C-256.7525 540.27425781 -256.505 539.54851563 -256.25 538.80078125 C-254.87572546 535.72154736 -253.25344071 533.68533961 -251 531.1875 C-250.29875 530.39730469 -249.5975 529.60710938 -248.875 528.79296875 C-247 527 -247 527 -245 527 C-244.77183594 526.4740625 -244.54367187 525.948125 -244.30859375 525.40625 C-242.55471119 522.18120027 -240.32341952 519.37753393 -238.0625 516.5 C-237.1782145 515.36471644 -236.29409589 514.22930287 -235.41015625 513.09375 C-234.61480469 512.0728125 -233.81945312 511.051875 -233 510 C-232.16275391 508.80890625 -232.16275391 508.80890625 -231.30859375 507.59375 C-230.66083984 506.80484375 -230.66083984 506.80484375 -230 506 C-229.34 506 -228.68 506 -228 506 C-227.64808594 505.16662109 -227.64808594 505.16662109 -227.2890625 504.31640625 C-225.67911773 501.42338428 -223.65700507 499.33607808 -221.375 496.9375 C-216.99419546 492.22654787 -213.22625418 487.34174536 -209.59375 482.01953125 C-209.0678125 481.35308594 -208.541875 480.68664062 -208 480 C-207.34 480 -206.68 480 -206 480 C-205.73832031 479.43152344 -205.47664063 478.86304688 -205.20703125 478.27734375 C-201.92432625 472.08376118 -196.98682604 466.85559378 -192 462 C-188.36702667 457.73171894 -184.8875575 453.35414782 -181.4375 448.9375 C-180.05133964 447.16618917 -178.6647682 445.39528705 -177.27294922 443.62841797 C-176.09406782 442.12033609 -174.93853845 440.59407827 -173.78515625 439.06640625 C-173.19605469 438.38449219 -172.60695313 437.70257812 -172 437 C-171.34 437 -170.68 437 -170 437 C-169.60941406 436.12988281 -169.60941406 436.12988281 -169.2109375 435.2421875 C-167.92034831 432.8525159 -166.46061452 431.1209302 -164.625 429.125 C-162.42052302 426.67761807 -160.43927132 424.28961319 -158.6875 421.5 C-158.130625 420.675 -157.57375 419.85 -157 419 C-156.34 419 -155.68 419 -155 419 C-154.7525 418.44441406 -154.505 417.88882812 -154.25 417.31640625 C-152.77137811 414.57633505 -150.97436755 412.34376045 -149 409.9375 C-146.86950813 407.33313035 -144.86787063 404.80180594 -143 402 C-142.34 402 -141.68 402 -141 402 C-140.9175 401.4225 -140.835 400.845 -140.75 400.25 C-139.78202213 397.3460664 -138.31305716 395.96259396 -136 394 C-135.34 394 -134.68 394 -134 394 C-133.34 392.35 -132.68 390.7 -132 389 C-131.34 389 -130.68 389 -130 389 C-129.62875 387.90558594 -129.62875 387.90558594 -129.25 386.7890625 C-127.8796708 383.73151548 -126.28100121 381.81533586 -124 379.375 C-121.75561506 376.95733534 -119.83557682 374.75336523 -118 372 C-117.34 372 -116.68 372 -116 372 C-115.75636719 371.27425781 -115.51273437 370.54851562 -115.26171875 369.80078125 C-113.84485241 366.65560117 -112.16884189 364.69795719 -109.8125 362.1875 C-109.01328125 361.32382812 -108.2140625 360.46015625 -107.390625 359.5703125 C-106.60171875 358.72210937 -105.8128125 357.87390625 -105 357 C-103.68067425 355.52691825 -102.36742185 354.0483564 -101.0625 352.5625 C-100.51722656 351.94503906 -99.97195313 351.32757812 -99.41015625 350.69140625 C-97.81877961 348.84382494 -97.81877961 348.84382494 -96 346 C-95.34 346 -94.68 346 -94 346 C-93.690625 345.01 -93.690625 345.01 -93.375 344 C-90.47305533 337.66848436 -85.87806691 332.87806691 -81 328 C-79.2039782 325.73941829 -77.45757152 323.44435307 -75.70703125 321.1484375 C-73.63873709 318.54532127 -71.38204985 316.31399128 -69 314 C-68.34 313.01 -67.68 312.02 -67 311 C-66.34 311 -65.68 311 -65 311 C-64.74863281 310.27554687 -64.49726563 309.55109375 -64.23828125 308.8046875 C-62.89396636 305.75983547 -61.32563254 303.67171817 -59.1875 301.125 C-58.39472656 300.17625 -57.60195313 299.2275 -56.78515625 298.25 C-54.74802588 295.85952798 -52.68762778 293.49007865 -50.62109375 291.125 C-49.7535144 290.13089111 -49.7535144 290.13089111 -48.8684082 289.11669922 C-47.72674217 287.8124405 -46.58089183 286.51182983 -45.43041992 285.21533203 C-42.56041451 281.94887857 -40.19400474 278.77053509 -38 275 C-37.01834967 273.98198103 -36.02086263 272.97869275 -35 272 C-66.26153492 271.95420078 -97.52306082 271.91889144 -128.78462141 271.89786934 C-132.49012201 271.89536845 -136.19562254 271.89277976 -139.90112305 271.89013672 C-140.63870374 271.8896121 -141.37628444 271.88908748 -142.13621607 271.88854696 C-154.01962818 271.87988608 -165.9030206 271.86414039 -177.7864211 271.84569441 C-190.01441444 271.82687433 -202.24239758 271.81585794 -214.4704048 271.81182301 C-221.32412295 271.80934456 -228.17780034 271.80347371 -235.03150368 271.78853989 C-241.5050631 271.77479091 -247.97856054 271.77081167 -254.45213318 271.77378464 C-256.8064171 271.77324211 -259.16070347 271.7693692 -261.51497459 271.76158905 C-273.87933141 271.7227925 -286.15903873 272.00694535 -298.49516296 272.88919067 C-299.59923675 272.96678175 -300.70331054 273.04437282 -301.84084111 273.12431514 C-307.59713791 273.57730602 -313.13604014 274.29655148 -318.76384193 275.60155189 C-321.21498294 276.03830657 -323.5153199 276.06518865 -326 276 C-326.33 276.66 -326.66 277.32 -327 278 C-329.14331491 278.2512852 -331.28798369 278.49439417 -333.43701172 278.69091797 C-337.61131525 279.19431559 -341.54636085 280.34711034 -345.5625 281.5625 C-346.42875 281.82426025 -347.295 282.08602051 -348.1875 282.35571289 C-356.62426633 285.01852855 -364.28892057 288.70470941 -372 293 C-373.61841797 293.88365234 -373.61841797 293.88365234 -375.26953125 294.78515625 C-382.22437446 298.70450949 -388.66019917 303.15683837 -395 308 C-395.87914062 308.66128906 -396.75828125 309.32257813 -397.6640625 310.00390625 C-402.33028961 313.60578246 -406.39981466 317.27745275 -410.16015625 321.81640625 C-412.32646678 324.3874627 -414.63151819 326.80362355 -416.9375 329.25 C-428.59783712 342.06044624 -435.89358174 356.98882594 -442 373 C-442.309375 373.77472656 -442.61875 374.54945313 -442.9375 375.34765625 C-446.56729288 384.55447465 -448.37919657 393.62478045 -449.35375977 403.42553711 C-449.90723324 408.90723324 -449.90723324 408.90723324 -451 410 C-451.09949077 411.75685674 -451.1308026 413.51767333 -451.1328125 415.27734375 C-451.13410156 416.34791016 -451.13539063 417.41847656 -451.13671875 418.52148438 C-451.13285156 419.64876953 -451.12898437 420.77605469 -451.125 421.9375 C-451.12886719 423.06091797 -451.13273438 424.18433594 -451.13671875 425.34179688 C-451.13542969 426.41365234 -451.13414062 427.48550781 -451.1328125 428.58984375 C-451.13112061 430.07278931 -451.13112061 430.07278931 -451.12939453 431.58569336 C-451.16026504 434.01172379 -451.16026504 434.01172379 -450 436 C-449.67838902 438.66644741 -449.39147866 441.32808067 -449.125 444 C-448.49559778 449.91724986 -447.52088901 455.31893181 -445.59765625 460.97265625 C-444.79826077 463.68433111 -444.77866498 466.19642305 -445 469 C-444.34 469 -443.68 469 -443 469 C-442.86464844 469.54785156 -442.72929687 470.09570312 -442.58984375 470.66015625 C-439.54419064 481.87618418 -434.32674191 492.38625347 -428.06640625 502.14453125 C-427 504 -427 504 -427 506 C-426.34 506 -425.68 506 -425 506 C-424.01 508.97 -424.01 508.97 -423 512 C-422.34 512 -421.68 512 -421 512 C-420.896875 512.639375 -420.79375 513.27875 -420.6875 513.9375 C-420.460625 514.618125 -420.23375 515.29875 -420 516 C-419.01 516.33 -418.02 516.66 -417 517 C-415.82702058 518.67568489 -414.65670843 520.35333929 -413.50390625 522.04296875 C-410.81455238 525.54262145 -407.37607824 528.18660147 -404 531 C-402.32634806 532.42936113 -400.65961304 533.86686222 -399 535.3125 C-397.8553125 536.29669922 -397.8553125 536.29669922 -396.6875 537.30078125 C-395 539 -395 539 -395 541 C-394.44570313 541.0928125 -393.89140625 541.185625 -393.3203125 541.28125 C-390.38067023 542.19184626 -388.35867613 543.6909941 -385.875 545.5 C-382.55530546 547.94482343 -382.55530546 547.94482343 -379 550 C-379 550.66 -379 551.32 -379 552 C-378.14921875 552.25265625 -377.2984375 552.5053125 -376.421875 552.765625 C-372.78470183 554.07766464 -369.58732865 555.8354582 -366.25 557.75 C-357.89878086 562.39845084 -349.11890426 565.24239321 -340 568 C-340 568.66 -340 569.32 -340 570 C-339.0925 570.103125 -338.185 570.20625 -337.25 570.3125 C-333.98038425 571.00414949 -332.46282263 571.82134921 -330 574 C-330.59080227 578.03350194 -331.89856117 580.92294774 -333.9375 584.4375 C-336.07271223 588.22660564 -337.85816149 591.7751975 -339 596 C-339.66 596 -340.32 596 -341 596 C-341.2784375 596.72832031 -341.556875 597.45664062 -341.84375 598.20703125 C-343.33693391 601.81387753 -345.19400635 605.13580701 -347.0859375 608.546875 C-348.5655143 611.21615233 -350.02596865 613.89314748 -351.4765625 616.578125 C-352.35912311 618.19805392 -353.24193623 619.8178453 -354.125 621.4375 C-354.75438477 622.60962036 -354.75438477 622.60962036 -355.39648438 623.80541992 C-359.5040656 631.29137314 -359.5040656 631.29137314 -363 634 C-369.13681491 634 -374.42851735 631.367075 -380 629 C-380.87140625 628.66226563 -381.7428125 628.32453125 -382.640625 627.9765625 C-407.30911776 618.26075949 -429.12073399 603.31206104 -448.4375 585.3125 C-449.08775146 584.70704346 -449.73800293 584.10158691 -450.40795898 583.4777832 C-454.33320984 579.75623194 -457.96257949 575.87130135 -461.47216797 571.75537109 C-462.81244268 570.21549011 -464.24396792 568.75603208 -465.6875 567.3125 C-468 565 -468 565 -470 562.3125 C-471.82918948 559.80902757 -471.82918948 559.80902757 -474.6875 559.0625 C-475.450625 558.711875 -476.21375 558.36125 -477 558 C-477.33333333 556 -477.66666667 554 -478 552 C-479.45615354 549.82399655 -481.04119316 547.83791781 -482.72265625 545.83203125 C-484 544 -484 544 -484 541 C-484.66 541 -485.32 541 -486 541 C-486.68835938 539.55367187 -486.68835938 539.55367187 -487.390625 538.078125 C-488.00998275 536.80187267 -488.62979872 535.52584263 -489.25 534.25 C-489.55035156 533.61578125 -489.85070312 532.9815625 -490.16015625 532.328125 C-491.57516365 529.43789712 -492.86950336 527.12861899 -495.171875 524.859375 C-497.42691432 522.565788 -497.52438446 521.13623711 -498 518 C-498.72901729 516.10834918 -499.50335162 514.23378668 -500.3125 512.375 C-506.2029352 498.45674312 -511.14490852 483.87257061 -514 469 C-514.26490234 467.74123047 -514.26490234 467.74123047 -514.53515625 466.45703125 C-515.77867967 460.22099156 -516.24804132 454.35261377 -516 448 C-516.66 448 -517.32 448 -518 448 C-518 446.35 -518 444.7 -518 443 C-517.34 443 -516.68 443 -516 443 C-516.16226074 442.30108643 -516.32452148 441.60217285 -516.49169922 440.88208008 C-517.03105424 437.82392155 -517.12949051 434.99111593 -517.1328125 431.88671875 C-517.13410156 430.72076172 -517.13539063 429.55480469 -517.13671875 428.35351562 C-517.13285156 427.14373047 -517.12898437 425.93394531 -517.125 424.6875 C-517.12886719 423.48931641 -517.13273438 422.29113281 -517.13671875 421.05664062 C-517.129982 414.94304347 -516.94580099 409.04261744 -516 403 C-516.66 403 -517.32 403 -518 403 C-518 402.01 -518 401.02 -518 400 C-517.34 400 -516.68 400 -516 400 C-515.87882813 398.90042969 -515.75765625 397.80085938 -515.6328125 396.66796875 C-515.46373572 395.17445719 -515.2944537 393.68096885 -515.125 392.1875 C-515.04636719 391.46884766 -514.96773437 390.75019531 -514.88671875 390.00976562 C-513.7275736 379.88953684 -511.70007213 370.23192134 -508.6875 360.5 C-508.37772217 359.49114746 -508.06794434 358.48229492 -507.7487793 357.44287109 C-505.63424257 350.6940704 -503.19204363 344.31664971 -500 338 C-499.34731503 336.5029686 -498.70139286 335.00296926 -498.0625 333.5 C-496.1311005 329.14077703 -493.88398401 324.98888856 -491.56640625 320.82421875 C-490.53384876 318.96252533 -489.52026712 317.09016177 -488.52734375 315.20703125 C-485.51207897 309.50617064 -482.2036316 304.21913852 -478.41796875 298.99609375 C-476.96667193 297.06117501 -476.96667193 297.06117501 -476 295 C-475.34 295 -474.68 295 -474 295 C-473.60554688 294.14728516 -473.60554688 294.14728516 -473.203125 293.27734375 C-470.43154948 288.03114723 -466.56492087 283.03216628 -461.875 279.375 C-459.47441662 277.39190938 -458.28217405 276.1218089 -456.625 273.625 C-453.71299806 269.32677349 -449.95910592 266.30530861 -446 263 C-443.88387022 261.09957413 -441.77146599 259.19525304 -439.6640625 257.28515625 C-438 256 -438 256 -436 256 C-436 255.34 -436 254.68 -436 254 C-435.34 254 -434.68 254 -434 254 C-433.67 253.01 -433.34 252.02 -433 251 C-432.01 251.33 -431.02 251.66 -430 252 C-429.67 251.01 -429.34 250.02 -429 249 C-427.09240404 247.38099647 -425.208067 245.8998466 -423.1875 244.4375 C-422.12917969 243.65246094 -421.07085937 242.86742187 -419.98046875 242.05859375 C-416.3622063 239.55947932 -413.29138008 237.91958145 -409 237 C-409 236.34 -409 235.68 -409 235 C-407.63875 234.38125 -407.63875 234.38125 -406.25 233.75 C-403.20334382 232.10949282 -401.28873194 230.55281639 -399 228 C-399 228.66 -399 229.32 -399 230 C-398.13117188 229.57847656 -397.26234375 229.15695312 -396.3671875 228.72265625 C-395.21476562 228.17480469 -394.06234375 227.62695312 -392.875 227.0625 C-391.73804688 226.51722656 -390.60109375 225.97195313 -389.4296875 225.41015625 C-386.21813339 224.0896881 -383.43290921 223.41215779 -380 223 C-380 222.34 -380 221.68 -380 221 C-366.81640625 216.60546875 -366.81640625 216.60546875 -364.41137695 215.80395508 C-362.79519867 215.2651199 -361.17915178 214.72589048 -359.56323242 214.1862793 C-350.91205156 211.29837605 -342.63915626 208.76937602 -333.56640625 207.52734375 C-330.77470491 207.12127062 -330.77470491 207.12127062 -328 205 C-325.39963906 204.55397396 -322.86876978 204.20649399 -320.25 203.9375 C-319.13057007 203.8139917 -319.13057007 203.8139917 -317.98852539 203.68798828 C-310.67303219 202.90801909 -303.34497307 202.40627216 -296 202 C-296 199.69 -296 197.38 -296 195 C-295.01 194.67 -294.02 194.34 -293 194 C-292.97421875 193.41734375 -292.9484375 192.8346875 -292.921875 192.234375 C-292.36093954 184.12630793 -290.11827127 176.74353861 -286.80859375 169.33203125 C-285.69725227 166.89230045 -285.69725227 166.89230045 -287 164 C-286.01 164 -285.02 164 -284 164 C-283.84144531 163.39414062 -283.68289063 162.78828125 -283.51953125 162.1640625 C-282.01050479 156.74490672 -280.12299393 151.87756974 -277.515625 146.8984375 C-276.34801757 144.66553875 -275.21777587 142.42621797 -274.109375 140.1640625 C-268.82641753 129.39132323 -262.96797254 119.32207728 -256.25 109.375 C-255.5233313 108.28832031 -255.5233313 108.28832031 -254.78198242 107.1796875 C-253.57386923 105.41595672 -252.29281046 103.70262293 -251 102 C-250.34 102 -249.68 102 -249 102 C-248.34 100.35 -247.68 98.7 -247 97 C-246.34 97 -245.68 97 -245 97 C-244.896875 96.4225 -244.79375 95.845 -244.6875 95.25 C-243.89103535 92.64338842 -242.80934723 91.0264689 -241 89 C-240.34 89 -239.68 89 -239 89 C-238.731875 88.4225 -238.46375 87.845 -238.1875 87.25 C-236.97070811 84.94449957 -235.69666121 82.97943808 -234 81 C-233.34 81 -232.68 81 -232 81 C-232 80.34 -232 79.68 -232 79 C-231.34 79 -230.68 79 -230 79 C-230 78.34 -230 77.68 -230 77 C-228.64453125 75.66796875 -228.64453125 75.66796875 -226.8125 74.1875 C-223.6710907 71.63467719 -220.84982884 68.87512317 -218 66 C-197.61531736 46 -197.61531736 46 -191 46 C-191 45.34 -191 44.68 -191 44 C-190.030625 43.731875 -189.06125 43.46375 -188.0625 43.1875 C-186.5465625 42.5996875 -186.5465625 42.5996875 -185 42 C-184.67 41.01 -184.34 40.02 -184 39 C-181.36758121 36.44070395 -179.89357813 35.07942917 -176.1875 34.75 C-175.465625 34.8325 -174.74375 34.915 -174 35 C-174 34.34 -174 33.68 -174 33 C-172.54462432 32.16151196 -171.08559627 31.32936066 -169.625 30.5 C-168.81289063 30.0359375 -168.00078125 29.571875 -167.1640625 29.09375 C-165 28 -165 28 -163 28 C-163 27.34 -163 26.68 -163 26 C-162.41734375 25.76925781 -161.8346875 25.53851563 -161.234375 25.30078125 C-160.41453125 24.97464844 -159.5946875 24.64851563 -158.75 24.3125 C-157.84378906 23.95285156 -156.93757813 23.59320313 -156.00390625 23.22265625 C-153.9382648 22.38189452 -151.88391908 21.51300795 -149.83984375 20.62109375 C-148.79957031 20.16863281 -147.75929688 19.71617187 -146.6875 19.25 C-145.72199219 18.82203125 -144.75648438 18.3940625 -143.76171875 17.953125 C-140.97387512 16.99098378 -138.92275081 16.80834421 -136 17 C-136 16.34 -136 15.68 -136 15 C-126.93015096 11.81402911 -117.84207458 9.06361467 -108.52416992 6.70043945 C-105.25377015 5.86892328 -102.06060003 5.02085487 -98.8671875 3.921875 C-95.64591528 2.8861526 -92.53807552 2.39317827 -89.1875 1.9375 C-85.27318789 1.71189223 -85.27318789 1.71189223 -82 0 Z M-82 69 C-82.82918945 69.16048828 -83.65837891 69.32097656 -84.51269531 69.48632812 C-91.91259447 70.94514087 -99.05947723 72.52393264 -106.09765625 75.26806641 C-108.88558338 76.34073139 -111.7289488 77.24298293 -114.5625 78.1875 C-126.555435 82.4633537 -137.44895917 88.92803889 -148 96 C-148.80566406 96.52980469 -149.61132812 97.05960938 -150.44140625 97.60546875 C-160.35247582 104.3029973 -169.31884447 112.16435035 -177.8125 120.5625 C-178.33440918 121.07514404 -178.85631836 121.58778809 -179.39404297 122.1159668 C-182.16912196 124.59260775 -182.16912196 124.59260775 -183 128 C-183.66 128 -184.32 128 -185 128 C-187.39742376 130.68825048 -189.4068396 133.69639163 -191.5 136.625 C-192.39138672 137.83736328 -192.39138672 137.83736328 -193.30078125 139.07421875 C-196.31300677 143.25597652 -198.7496953 146.91652431 -200 152 C-200.66 152 -201.32 152 -202 152 C-210.60915064 166.90339633 -217.86998528 181.38861732 -222.05371094 198.19799805 C-222.36598633 199.45265869 -222.67826172 200.70731934 -223 202 C-222.0824011 202.00146521 -222.0824011 202.00146521 -221.14626485 202.00296003 C-184.90495363 202.06120855 -148.66370503 202.13498747 -112.42246826 202.22898628 C-108.0727428 202.2402547 -103.72301702 202.25139311 -99.37329102 202.26245117 C-98.50732428 202.26465486 -97.64135755 202.26685854 -96.7491494 202.269129 C-82.72017418 202.30451931 -68.691199 202.32937365 -54.66219566 202.35034702 C-40.27142781 202.37209527 -25.88071798 202.40513638 -11.48999947 202.44870156 C-2.60728959 202.47523512 6.27534796 202.49291792 15.15809552 202.49934604 C21.24602115 202.50459472 27.33385571 202.52079413 33.42173257 202.54566566 C36.93623387 202.55969858 40.45057207 202.56884484 43.96510315 202.56500816 C47.77326005 202.56097694 51.58110185 202.57997535 55.38920593 202.60127258 C56.50301673 202.59642501 57.61682753 202.59157743 58.76439017 202.58658296 C68.18175183 202.67388046 68.18175183 202.67388046 72 206 C72.33 206.66 72.66 207.32 73 208 C73.66 208 74.32 208 75 208 C79.90711007 223.64141334 76.63165886 240.09584727 69.25146484 254.36376953 C66.6500772 259.1363018 63.67928218 263.37721841 60.1328125 267.5078125 C57.62666472 270.4362416 55.32134379 273.48737006 53 276.5625 C49.5608463 281.07691776 45.95507288 285.36103339 42.1328125 289.5546875 C38.93367778 293.2225599 35.98130098 297.07514719 32.99633789 300.91772461 C30.57583368 304.0239193 28.1305195 307.06668689 25.5 310 C22.43981168 313.41636226 19.62326664 317.0034921 16.8125 320.625 C12.95408343 325.58935343 8.98667461 330.430754 4.875 335.1875 C-2.71931324 343.9763152 -10.00085552 352.91891885 -16.9140625 362.2578125 C-18.72104982 364.63329022 -20.58707899 366.88989924 -22.5625 369.125 C-25.21556175 371.62604873 -25.21556175 371.62604873 -25 374 C-25.5671875 374.20882813 -26.134375 374.41765625 -26.71875 374.6328125 C-29.84570094 376.50684132 -31.38865516 378.91767109 -33.5 381.875 C-36.14444473 385.56092124 -38.75949655 388.83500343 -42 392 C-43.58478569 393.8351552 -45.14652475 395.6904061 -46.6875 397.5625 C-47.47511719 398.51253906 -48.26273438 399.46257812 -49.07421875 400.44140625 C-51.14816877 402.91476063 -51.14816877 402.91476063 -52 406 C-52.66 406 -53.32 406 -54 406 C-55.53674364 407.88681265 -56.96661069 409.77089083 -58.375 411.75 C-61.05608911 415.46227723 -63.69186295 418.83384308 -67 422 C-69.3909775 424.66841084 -69.3909775 424.66841084 -70 428 C-70.66 428 -71.32 428 -72 428 C-72.37125 428.86625 -72.37125 428.86625 -72.75 429.75 C-74.16305697 432.29350255 -75.95298918 433.95298918 -78 436 C-78 436.66 -78 437.32 -78 438 C-78.99 438.33 -79.98 438.66 -81 439 C-84.03277199 442.05508026 -84.03277199 442.05508026 -85 446 C-85.66 446 -86.32 446 -87 446 C-88.77071804 447.90526061 -88.77071804 447.90526061 -90.625 450.375 C-91.346875 451.29925781 -92.06875 452.22351563 -92.8125 453.17578125 C-93.534375 454.10777344 -94.25625 455.03976562 -95 456 C-99.90593345 462.20642873 -104.9054894 468.33321417 -109.9375 474.4375 C-110.54045898 475.16912354 -111.14341797 475.90074707 -111.76464844 476.65454102 C-114.47385216 479.94046006 -117.18543653 483.22435416 -119.90234375 486.50390625 C-120.71832031 487.49261719 -121.53429687 488.48132813 -122.375 489.5 C-123.08398438 490.3559375 -123.79296875 491.211875 -124.5234375 492.09375 C-126.10206154 493.72989046 -126.10206154 493.72989046 -126 495 C-84.34323076 495.15089004 -42.68644469 495.29592191 -1.02962842 495.4332476 C3.90375046 495.44951591 8.83712919 495.46583203 13.77050781 495.48217773 C15.24354408 495.48705712 15.24354408 495.48705712 16.74633865 495.49203508 C32.58523939 495.54461462 48.42412409 495.60105547 64.26300617 495.6589582 C80.55113714 495.71841601 96.83927862 495.77364339 113.127437 495.82505554 C123.1540064 495.8568335 133.18055381 495.89179512 143.20709692 495.93101191 C150.110441 495.95769473 157.01379138 495.98021775 163.91715957 495.99967117 C167.88231464 496.0109614 171.84744335 496.02389089 175.81257439 496.04183006 C191.06354891 496.10951942 206.30363343 496.06290315 221.54940796 495.62364197 C222.77511304 495.59288057 224.00081813 495.56211917 225.2636658 495.53042561 C235.76903882 495.71613428 235.76903882 495.71613428 245 492 C247.97095452 491.71292924 250.94222256 491.55137382 253.921875 491.37890625 C256.96794862 491.00394541 259.19774644 490.202287 262 489 C263.3684712 488.69790353 264.74409395 488.426402 266.125 488.1875 C271.83059309 486.96018852 276.78040886 484.55785934 282 482 C283.25506365 481.4033414 284.51028047 480.80700492 285.765625 480.2109375 C294.96587724 475.7840942 303.57779989 470.77034521 312 465 C312.78890625 464.45988281 313.5778125 463.91976563 314.390625 463.36328125 C314.92171875 462.91339844 315.4528125 462.46351563 316 462 C316 461.34 316 460.68 316 460 C316.845625 459.835 317.69125 459.67 318.5625 459.5 C323.26587717 457.44761723 326.0673567 454.16470054 329 450 C329 449.34 329 448.68 329 448 C329.556875 447.79375 330.11375 447.5875 330.6875 447.375 C333.97012371 445.42316968 335.70673246 443.05769006 338 440 C338 439.34 338 438.68 338 438 C338.66 438 339.32 438 340 438 C341.65298045 435.79489828 341.65298045 435.79489828 343.3125 433 C343.93511719 431.989375 344.55773437 430.97875 345.19921875 429.9375 C346.09060547 428.4834375 346.09060547 428.4834375 347 427 C347.875 425.66666667 348.75 424.33333333 349.625 423 C355.80685289 413.04823026 360.26774853 401.51982149 362.56640625 390.046875 C362.96326499 388.17341572 363.50621851 386.33245667 364.0625 384.5 C366.43275124 375.65106202 366.15275202 366.5934135 366.125 357.5 C366.12886719 356.23285156 366.13273438 354.96570313 366.13671875 353.66015625 C366.12740566 344.71027707 365.71579946 336.22290527 363.625 327.5 C363.27308594 325.96859375 363.27308594 325.96859375 362.9140625 324.40625 C362.61242187 323.6121875 362.31078125 322.818125 362 322 C361.01 321.67 360.02 321.34 359 321 C359 320.34 359 319.68 359 319 C359.66 318.67 360.32 318.34 361 318 C360.01 317.67 359.02 317.34 358 317 C358.0825 316.030625 358.165 315.06125 358.25 314.0625 C358.25993881 309.1527279 356.17476196 305.30275484 354 301 C353.13375 299.2365625 353.13375 299.2365625 352.25 297.4375 C351.8375 296.633125 351.425 295.82875 351 295 C350.34 295 349.68 295 349 295 C348.9278125 294.13761719 348.855625 293.27523437 348.78125 292.38671875 C347.86019743 288.39395584 346.04555898 285.90495641 343.5 282.8125 C343.0565625 282.25731689 342.613125 281.70213379 342.15625 281.13012695 C341.236877 279.98270636 340.31234955 278.83939749 339.3828125 277.70019531 C338.04046471 276.04975216 336.72089925 274.3834859 335.40625 272.7109375 C332.30091339 268.77146488 332.30091339 268.77146488 329 265 C328.34 265 327.68 265 327 265 C326.34 263.68 325.68 262.36 325 261 C324.34 261 323.68 261 323 261 C322.67 260.01 322.34 259.02 322 258 C319.80626962 256.18920767 317.62562493 254.51981274 315.3125 252.875 C314.63622559 252.38999023 313.95995117 251.90498047 313.26318359 251.40527344 C311.18346978 249.92509492 309.09331054 248.46086778 307 247 C306.40396973 246.5781543 305.80793945 246.15630859 305.19384766 245.72167969 C296.01969045 239.27639432 286.47282118 234.9317846 276 231 C275.33258789 230.7407373 274.66517578 230.48147461 273.97753906 230.21435547 C262.61754512 225.83814473 251.54117545 223.6019509 239.42578125 223.17578125 C236 223 236 223 233.61645508 222.49951172 C228.91240182 221.60145322 224.15034166 221.80892457 219.375 221.8125 C217.70679199 221.8137085 217.70679199 221.8137085 216.00488281 221.81494141 C206.22864403 221.88647486 196.67884522 222.68442881 187 224 C185.8346875 224.144375 184.669375 224.28875 183.46875 224.4375 C176.16343979 225.43045479 169.26729563 227.19869395 162.21484375 229.29296875 C157.71098151 230.28349009 157.71098151 230.28349009 155 229 C153.01819634 226.02729452 152.70908235 225.0025344 152.25 221.625 C150.6982723 212.22560022 147.70020104 203.12048149 145 194 C144.34 194 143.68 194 143 194 C142.91363281 193.0203125 142.82726562 192.040625 142.73828125 191.03125 C142.07934429 186.44292539 140.22154517 182.62715517 138.1875 178.5 C137.84396484 177.77941406 137.50042969 177.05882812 137.14648438 176.31640625 C134.95032171 171.7592657 132.55583384 167.3650196 130 163 C129.34 163 128.68 163 128 163 C127.72414063 162.26007813 127.44828125 161.52015625 127.1640625 160.7578125 C125.34513456 156.44854028 122.67210797 152.82152914 120 149 C119.38769531 148.11699219 118.77539062 147.23398437 118.14453125 146.32421875 C111.30163669 136.66767893 103.36009768 128.27807979 95.0625 119.875 C94.39919678 119.19856445 93.73589355 118.52212891 93.05249023 117.82519531 C92.42802002 117.19967773 91.8035498 116.57416016 91.16015625 115.9296875 C90.31916382 115.08253174 90.31916382 115.08253174 89.46118164 114.21826172 C88.06104935 112.78654209 88.06104935 112.78654209 86 113 C85.67 112.01 85.34 111.02 85 110 C82.98491642 109.26676204 82.98491642 109.26676204 81 109 C81 108.34 81 107.68 81 107 C79.35 106.34 77.7 105.68 76 105 C76 104.34 76 103.68 76 103 C74.37132863 101.93924209 72.69061667 100.95895414 71 100 C69.6346146 99.12842612 68.27439259 98.24873745 66.91796875 97.36328125 C42.2778342 81.41889512 14.60224147 68.15498517 -15.28515625 67.140625 C-18 67 -18 67 -19.67407227 66.50390625 C-23.07482788 65.76714131 -26.46571234 65.81740784 -29.9296875 65.796875 C-30.7082309 65.78990601 -31.48677429 65.78293701 -32.28890991 65.77575684 C-34.81766109 65.7583018 -37.34619091 65.75202677 -39.875 65.75 C-40.7352478 65.74899292 -41.59549561 65.74798584 -42.48181152 65.74694824 C-55.86875748 65.75757231 -68.83739989 66.37944104 -82 69 Z M-517 444 C-516 447 -516 447 -516 447 Z " transform="translate(548,166)"/>
<path d="M0 0 C0.66 0 1.32 0 2 0 C2 0.66 2 1.32 2 2 C1.34 2 0.68 2 0 2 C0 1.34 0 0.68 0 0 Z " class="dynamic-fill" transform="translate(843,635)"/>
<path d="M0 0 C3 1 3 1 3 1 Z " class="dynamic-fill" transform="translate(771,318)"/>
<path d="M0 0 C2 1 2 1 2 1 Z " class="dynamic-fill" transform="translate(403,876)"/>
<path d="M0 0 C2 1 2 1 2 1 Z " class="dynamic-fill" transform="translate(103,761)"/>
<path d="M0 0 C2 1 2 1 2 1 Z " class="dynamic-fill" transform="translate(777,318)"/>
<path d="" class="dynamic-fill" transform="translate(0,0)"/>
<path d="" class="dynamic-fill" transform="translate(0,0)"/>
<path d="" class="dynamic-fill" transform="translate(0,0)"/>
<path d="" class="dynamic-fill" transform="translate(0,0)"/>
<path d="" class="dynamic-fill" transform="translate(0,0)"/>
<path d="" class="dynamic-fill" transform="translate(0,0)"/>
<path d="" class="dynamic-fill" transform="translate(0,0)"/>
<path d="" class="dynamic-fill" transform="translate(0,0)"/>
<path d="" class="dynamic-fill" transform="translate(0,0)"/>
<path d="" class="dynamic-fill" transform="translate(0,0)"/>
<path d="" class="dynamic-fill" transform="translate(0,0)"/>
<path d="" class="dynamic-fill" transform="translate(0,0)"/>
</svg>
