<?xml version="1.0" encoding="UTF-8"?>
<svg version="1.1" xmlns="http://www.w3.org/2000/svg" width="1024" height="1024" viewBox="0 0 1024 1024">
  <style>
    /* This CSS block handles the dynamic coloring */

    /* Default fill for light backgrounds */
    .dynamic-fill {
      fill: black;
    }

    /* Change to white fill for dark backgrounds */
    @media (prefers-color-scheme: dark) {
      .dynamic-fill {
        fill: white;
      }
    }
  </style>

  <!-- The main path of your SVG, now using the dynamic class -->
  <path 
    class="dynamic-fill" 
    d="M0 0 C0.33 0.33 0.66 0.66 1 1 C4.671496 1.6623833 8.34780098 2.24188362 12.03515625 2.80664062 C16.81900383 3.5646723 21.34569543 4.6270656 26 6 C28.66763327 6.45388303 31.30580583 6.71640061 34 7 C34 7.66 34 8.32 34 9 C34.7734375 9.18175781 35.546875 9.36351562 36.34375 9.55078125 C42.4185483 11.01685262 48.2050553 12.65973387 54 15 C54 15.66 54 16.32 54 17 C55.216875 17.04125 56.43375 17.0825 57.6875 17.125 C64.39769773 17.86354377 70.04151725 20.99922194 76 24 C77.51207031 24.74636719 77.51207031 24.74636719 79.0546875 25.5078125 C81.37667589 26.65893989 83.69142676 27.82226286 86 29 C86 29.66 86 30.32 86 31 C86.72058594 31.10441406 87.44117188 31.20882812 88.18359375 31.31640625 C91.28258752 32.0685892 93.37427907 33.2381455 96.0625 34.9375 C98.99128483 36.77419557 101.87959153 38.50825738 105 40 Z" 
    transform="translate(548,166)"/>
</svg>
